<?xml version="1.0" standalone="no"?>
<!DOCTYPE svg PUBLIC "-//W3C//DTD SVG 20010904//EN"
 "http://www.w3.org/TR/2001/REC-SVG-20010904/DTD/svg10.dtd">
<svg version="1.0" xmlns="http://www.w3.org/2000/svg"
 width="300.000000pt" height="300.000000pt" viewBox="0 0 300.000000 300.000000"
 preserveAspectRatio="xMidYMid meet">
<metadata>
Created by potrace 1.11, written by Peter Selinger 2001-2013
</metadata>
<g transform="translate(0.000000,300.000000) scale(0.100000,-0.100000)"
fill="#000000" stroke="none">
<path d="M1141 2785 c-41 -8 -85 -16 -98 -19 -12 -4 -26 -7 -30 -7 -25 -3
-160 -57 -228 -91 -343 -172 -591 -495 -672 -878 -26 -125 -25 -397 3 -510 3
-14 9 -41 14 -60 4 -19 12 -47 18 -62 7 -16 10 -28 7 -28 -2 0 2 -12 10 -27 8
-15 12 -30 9 -35 -3 -4 0 -8 5 -8 6 0 11 -7 11 -15 0 -9 7 -27 16 -40 9 -13
12 -30 8 -36 -4 -8 -3 -9 4 -5 7 4 12 2 12 -4 0 -7 9 -25 21 -42 12 -16 18
-32 15 -35 -3 -3 3 -13 15 -21 11 -8 18 -20 15 -28 -3 -8 -2 -13 2 -11 4 1 8
-2 9 -7 0 -5 8 -13 17 -18 9 -5 14 -13 11 -19 -4 -5 1 -9 9 -9 9 0 16 -4 16
-10 0 -5 11 -21 26 -35 14 -14 23 -29 20 -34 -3 -5 1 -14 9 -21 8 -7 15 -9 15
-5 0 3 13 -7 30 -23 17 -17 30 -36 30 -44 0 -10 3 -9 10 2 9 13 10 13 11 0 1
-8 1 -19 0 -24 -1 -5 6 -6 15 -2 11 4 18 0 21 -13 3 -13 10 -18 21 -14 10 4
13 2 8 -5 -4 -7 -1 -12 7 -12 7 0 22 -8 33 -18 10 -10 27 -21 37 -25 9 -3 17
-14 17 -24 0 -15 2 -16 10 -3 6 10 10 11 10 3 0 -7 7 -13 15 -13 8 0 15 -4 15
-9 0 -5 9 -11 21 -14 13 -4 18 -10 14 -18 -6 -8 -3 -9 10 -1 14 7 22 6 33 -4
7 -8 22 -14 31 -14 10 0 24 -7 31 -15 9 -10 9 -15 1 -15 -6 0 -11 5 -11 10 0
6 -5 10 -12 10 -8 0 -6 -6 4 -17 14 -13 20 -14 32 -4 11 10 19 8 37 -11 12
-13 19 -17 15 -11 -4 7 -3 13 2 13 6 0 12 -7 16 -15 3 -8 11 -15 18 -15 9 0 8
3 -2 10 -9 6 -10 10 -3 10 6 0 15 -5 18 -10 4 -6 11 -8 16 -5 5 3 6 -1 3 -9
-3 -9 -1 -16 5 -16 6 0 11 7 11 16 0 8 5 12 10 9 6 -4 8 -10 5 -15 -3 -5 0
-12 6 -16 7 -4 9 -3 5 4 -3 6 -2 13 4 17 9 5 14 -7 11 -27 0 -4 6 -5 14 -2 8
4 13 9 10 13 -2 4 2 8 11 8 9 0 13 -7 9 -21 -3 -12 -2 -15 1 -9 4 9 11 10 24
3 13 -7 21 -7 26 2 4 6 3 8 -2 5 -6 -3 -16 -1 -24 4 -11 7 -9 8 8 6 13 -2 28
-10 33 -18 6 -10 9 -10 9 -1 0 6 5 12 11 12 5 0 8 -4 5 -9 -3 -5 1 -12 10 -15
11 -4 15 -2 11 8 -6 15 17 16 30 1 4 -4 2 -5 -6 0 -9 5 -12 4 -7 -3 3 -6 15
-9 26 -7 11 2 20 1 20 -3 0 -4 9 -8 20 -8 12 0 19 5 16 12 -3 7 2 11 12 9 9
-2 21 -4 25 -4 5 -1 6 -5 3 -9 -7 -11 31 -8 41 3 5 4 3 5 -4 1 -6 -3 -14 -2
-17 3 -4 5 2 8 11 7 10 -2 21 2 25 8 5 8 8 7 8 -1 0 -8 13 -13 31 -13 21 0 28
-4 23 -12 -6 -10 -5 -10 8 -1 8 7 19 9 23 5 5 -4 5 -1 1 6 -4 7 -11 10 -16 7
-5 -3 -11 -2 -14 3 -2 4 6 8 20 8 13 0 24 -4 24 -10 0 -5 6 -2 13 9 11 14 16
15 22 5 5 -9 4 -11 -3 -6 -7 4 -12 2 -12 -3 0 -17 18 -13 29 7 6 9 11 12 11 6
0 -7 13 -11 30 -10 16 0 29 5 27 11 -1 5 3 10 8 10 6 0 9 -3 8 -6 -1 -3 5 -6
13 -6 8 0 13 6 10 14 -3 7 -2 12 2 12 4 -1 9 -1 12 1 3 1 16 3 29 6 14 2 30 9
37 15 9 7 19 7 33 0 14 -8 22 -8 26 0 4 6 13 8 19 6 7 -3 13 1 13 9 0 7 -5 10
-10 7 -6 -3 -7 -1 -4 4 4 6 16 13 28 16 16 4 19 3 10 -6 -6 -6 -11 -16 -11
-21 0 -6 4 -5 9 2 4 7 14 15 22 16 27 6 49 18 49 28 0 7 -5 6 -13 -1 -8 -6
-18 -7 -22 -3 -5 4 -5 1 0 -7 5 -10 4 -12 -4 -7 -6 4 -9 12 -5 17 3 5 9 7 14
4 5 -3 11 -1 15 5 4 6 11 8 16 5 5 -4 9 -1 9 5 0 7 7 7 23 -1 21 -12 21 -11 7
6 -9 11 -10 16 -2 11 7 -4 12 -2 12 6 0 9 3 9 10 -2 8 -13 10 -13 10 2 0 9 5
20 12 24 7 5 8 3 3 -6 -5 -8 -3 -11 6 -8 8 3 14 10 14 15 0 6 13 22 30 34 16
13 26 18 21 11 -4 -6 -2 -12 3 -12 6 0 11 7 11 16 0 11 5 14 16 10 12 -4 15
-2 10 9 -3 8 -2 14 2 13 4 -1 17 3 30 10 18 10 22 10 22 0 0 -10 2 -10 8 0 6
9 39 11 128 7 137 -5 176 -10 259 -31 147 -38 244 -116 245 -196 1 -31 139
340 140 373 0 28 -38 91 -73 120 -76 63 -215 112 -357 124 -19 2 -37 4 -40 5
-3 2 -8 2 -11 2 -4 -1 -2 9 4 23 7 13 15 21 19 19 4 -3 5 3 1 12 -4 12 -3 15
5 10 8 -5 10 -2 6 8 -3 9 -1 16 5 16 6 0 8 7 4 17 -5 11 -3 14 6 8 10 -5 11
-2 7 13 -4 11 -2 23 4 27 5 3 10 17 10 31 0 13 5 24 12 24 6 0 9 3 6 6 -4 3
-2 20 4 37 6 18 10 43 9 56 -1 16 3 22 14 17 12 -4 13 -2 2 15 -10 16 -9 21 2
28 9 6 10 11 2 15 -6 4 -8 12 -5 18 4 6 8 24 10 42 7 60 2 301 -6 301 -1 0 -3
9 -4 20 -2 19 -11 67 -20 110 -38 180 -161 409 -306 567 -77 84 -218 192 -331
252 -81 43 -225 99 -283 110 -14 3 -36 8 -47 11 -70 23 -366 29 -468 10z
m-711 -2105 c0 -5 -2 -10 -4 -10 -3 0 -8 5 -11 10 -3 6 -1 10 4 10 6 0 11 -4
11 -10z m1373 -331 c-8 -8 -13 -7 -18 2 -5 8 -4 10 3 5 7 -4 12 -2 12 5 0 7 3
9 7 6 4 -4 2 -12 -4 -18z m-193 -47 c0 -5 -7 -9 -15 -9 -8 0 -12 4 -9 9 3 4 9
8 15 8 5 0 9 -4 9 -8z m-320 -22 c0 -5 -5 -10 -11 -10 -5 0 -7 5 -4 10 3 6 8
10 11 10 2 0 4 -4 4 -10z"/>
<path d="M593 507 c0 -8 6 -14 14 -14 9 0 10 4 2 14 -6 7 -12 13 -14 13 -1 0
-2 -6 -2 -13z"/>
<path d="M2056 485 c-11 -8 -15 -15 -9 -15 7 0 15 5 18 10 4 6 11 7 17 4 7 -4
8 -2 4 4 -9 14 -7 15 -30 -3z"/>
<path d="M780 396 c0 -3 9 -10 20 -16 11 -6 20 -8 20 -6 0 3 -9 10 -20 16 -11
6 -20 8 -20 6z"/>
<path d="M1739 323 c-13 -16 -12 -17 3 -5 9 8 23 10 29 6 8 -4 9 -3 5 4 -10
17 -21 15 -37 -5z"/>
<path d="M1683 307 c-3 -6 -1 -7 5 -3 5 3 12 1 14 -6 3 -8 6 -7 10 3 7 17 -19
22 -29 6z"/>
</g>
</svg>
